<?xml version="1.0" encoding="UTF-8" standalone="no"?>
<!DOCTYPE svg PUBLIC "-//W3C//DTD SVG 1.1//EN" "http://www.w3.org/Graphics/SVG/1.1/DTD/svg11.dtd">
<svg width="100%" height="100%" viewBox="0 0 200 200" version="1.1" xmlns="http://www.w3.org/2000/svg" xmlns:xlink="http://www.w3.org/1999/xlink" xml:space="preserve" xmlns:serif="http://www.serif.com/" style="fill-rule:evenodd;clip-rule:evenodd;stroke-linecap:round;stroke-linejoin:round;stroke-miterlimit:1.5;">
    <g transform="matrix(0.997346,-5.55112e-17,0,0.835628,-386.065,-367.794)">
        <path d="M568.302,504.531L568.302,615.092C568.302,641.752 550.167,663.396 527.83,663.396L446.887,663.396C424.55,663.396 406.415,641.752 406.415,615.092L406.415,504.531C406.415,477.871 424.55,456.226 446.887,456.226L527.83,456.226C550.167,456.226 568.302,477.871 568.302,504.531Z" style="fill:rgb(235,235,235);fill-opacity:0.85;"/>
        <clipPath id="_clip1">
            <path d="M568.302,504.531L568.302,615.092C568.302,641.752 550.167,663.396 527.83,663.396L446.887,663.396C424.55,663.396 406.415,641.752 406.415,615.092L406.415,504.531C406.415,477.871 424.55,456.226 446.887,456.226L527.83,456.226C550.167,456.226 568.302,477.871 568.302,504.531Z"/>
        </clipPath>
        <g clip-path="url(#_clip1)">
            <g transform="matrix(0.606747,-0.292968,0.785607,2.31771,-392.123,-860.017)">
                <path d="M517.769,673.99L576.508,727.867L517.769,727.867L517.769,673.99Z"/>
            </g>
            <g transform="matrix(-0.610218,0.282512,-0.757571,-2.33097,1354.21,2000.42)">
                <path d="M517.769,673.99L576.508,727.867L517.769,727.867L517.769,673.99Z"/>
            </g>
        </g>
        <path d="M568.302,504.531L568.302,615.092C568.302,641.752 550.167,663.396 527.83,663.396L446.887,663.396C424.55,663.396 406.415,641.752 406.415,615.092L406.415,504.531C406.415,477.871 424.55,456.226 446.887,456.226L527.83,456.226C550.167,456.226 568.302,477.871 568.302,504.531Z" style="fill:none;stroke:black;stroke-width:21.74px;"/>
    </g>
</svg>
